<svg width="64" height="64" viewBox="0 0 64 64" fill="none" xmlns="http://www.w3.org/2000/svg">
<path d="M38.0972 20.71C32.5667 26.5219 29.5081 31.2471 29.5081 31.2471L26.925 34.8092L32.1484 39.5498L35.452 36.6889C39.1322 32.8629 42.2504 29.9937 45.4334 26.2024L38.0972 20.71Z" fill="#F0F0FF"/>
<path d="M37.3025 20.0202C34.3536 23.07 32.0992 25.8195 30.7275 27.5886C30.1395 28.345 29.5674 29.1132 29.0117 29.8929C28.8628 30.1025 28.7157 30.3133 28.5706 30.5254L28.4573 30.6929L28.4277 30.7372C28.4625 30.685 28.4948 30.6482 28.5395 30.6046C28.5049 30.6386 28.4731 30.6753 28.4445 30.7143L25.8041 34.2977C25.6691 34.4808 25.6075 34.7066 25.6312 34.9318C25.6548 35.1569 25.7621 35.3656 25.9323 35.5176L31.271 40.2865C31.4397 40.4371 31.6585 40.5217 31.8862 40.5242C32.1138 40.5268 32.3346 40.4472 32.5067 40.3004L35.8835 37.4226C35.9023 37.4064 35.9274 37.3826 35.945 37.365L39.3216 33.9823C41.6914 31.6351 43.9302 29.418 46.189 26.7699C46.2706 26.6742 46.3315 26.5632 46.368 26.4435C46.4046 26.3238 46.4159 26.1981 46.4013 26.0739C46.3868 25.9498 46.3467 25.8299 46.2835 25.7216C46.2203 25.6132 46.1352 25.5187 46.0337 25.4439L38.5354 19.9186C38.3529 19.784 38.1266 19.72 37.8994 19.7387C37.6722 19.7574 37.4598 19.8576 37.3025 20.0202ZM44.7621 25.5882C42.5536 28.1771 40.3415 30.3677 38.0003 32.6869L34.6024 36.0911C34.62 36.0735 34.645 36.0497 34.6639 36.0335L31.2873 38.9116C31.4595 38.7648 31.6802 38.6852 31.9079 38.6878C32.1356 38.6904 32.3544 38.775 32.5231 38.9256L27.1845 34.1567C27.3547 34.3087 27.4619 34.5173 27.4855 34.7424C27.5092 34.9675 27.4476 35.1932 27.3127 35.3764L29.9526 31.7932C29.9625 31.7802 29.9718 31.7665 29.9807 31.7533C30.0114 31.7065 33.1334 26.9953 38.6524 21.2871C38.4951 21.4496 38.2827 21.5498 38.0555 21.5686C37.8283 21.5874 37.602 21.5235 37.4193 21.3891L44.9176 26.9143C44.816 26.8395 44.731 26.745 44.6678 26.6367C44.6046 26.5284 44.5645 26.4084 44.55 26.2843C44.5354 26.1602 44.5466 26.0344 44.5831 25.9147C44.6196 25.7949 44.6805 25.6838 44.7621 25.5882Z" fill="#6E6E96"/>
<path d="M24.6971 46.3711L31.7034 39.6678C32.0567 39.2681 31.3765 37.9253 29.981 36.668C28.5855 35.4099 27.1676 34.7157 26.8155 35.1152C26.8121 35.1194 26.8109 35.1247 26.8073 35.1287L26.8053 35.1263L21.0803 43.1126" fill="#F0F0FF"/>
<path d="M25.1087 47.1048L32.382 40.3294C32.4012 40.3116 32.4195 40.2928 32.4371 40.2738C32.6035 40.0905 32.7955 39.7671 32.7669 39.2677C32.7037 38.1798 31.5926 36.8372 30.5738 35.9434C29.7954 35.2603 27.1628 33.1334 25.9721 34.4484C25.9202 34.5066 25.8753 34.5705 25.8384 34.6389C25.9107 34.5065 26.0147 34.3937 26.1415 34.3102C26.2683 34.2267 26.4139 34.1751 26.5656 34.1599C26.7173 34.1448 26.8705 34.1666 27.0117 34.2233C27.1528 34.2801 27.2777 34.3701 27.3754 34.4855C27.2844 34.3779 27.1697 34.2922 27.04 34.2348C26.9103 34.1774 26.7691 34.1499 26.627 34.1544C26.485 34.1588 26.346 34.1951 26.2204 34.2605C26.0948 34.3259 25.9861 34.4187 25.9025 34.5319L19.9592 42.6041C19.8873 42.7018 19.8356 42.8124 19.8071 42.9298C19.7786 43.0471 19.7738 43.1688 19.7931 43.288C19.8123 43.4071 19.8552 43.5214 19.9192 43.6242C19.9833 43.727 20.0673 43.8164 20.1664 43.8872C20.2655 43.9581 20.3778 44.009 20.4969 44.0371C20.6159 44.0652 20.7395 44.0699 20.8604 44.0509C20.9813 44.0319 21.0972 43.9897 21.2016 43.9266C21.306 43.8635 21.3967 43.7807 21.4686 43.6831L27.4119 35.6109C27.3285 35.7241 27.22 35.8171 27.0946 35.8827C26.9692 35.9483 26.8303 35.9848 26.6883 35.9894C26.5465 35.9941 26.4054 35.9669 26.2759 35.9097C26.1463 35.8526 26.0317 35.7671 25.9408 35.6597C26.0393 35.7765 26.1657 35.8675 26.3086 35.9245C26.4515 35.9816 26.6065 36.0028 26.7598 35.9865C26.913 35.9701 27.0598 35.9167 27.187 35.8308C27.3142 35.745 27.4179 35.6294 27.4887 35.4945C27.4635 35.5414 27.4386 35.5796 27.4054 35.6217C27.3921 35.6388 27.378 35.6554 27.3634 35.6715C27.2148 35.8356 27.0391 35.8665 26.989 35.8644C27.2422 35.875 27.0946 35.8827 29.3334 37.3152C30.488 38.328 30.8894 39.1777 30.9049 39.3727C30.9018 39.3329 30.9209 39.1873 31.0464 39.0491C31.0638 39.0298 31.0821 39.0113 31.1013 38.9938L23.8277 45.7694C23.6526 45.9378 23.5518 46.1674 23.5469 46.4084C23.5421 46.6495 23.6335 46.8827 23.8016 47.058C23.9697 47.2332 24.2009 47.3363 24.4454 47.345C24.69 47.3538 24.9282 47.2675 25.1087 47.1048Z" fill="#6E6E96"/>
<path d="M57.1857 5.38231C52.2064 1.4833 39.6759 18.2262 39.6759 18.2262L37.1102 21.6487C37.1102 21.6487 36.9088 22.0794 37.0295 22.0643C37.656 21.9876 39.8249 21.8722 42.3365 25.3057C42.6613 25.823 43.1013 26.5869 43.3874 28.1428C43.394 28.1777 43.3818 28.1069 43.3874 28.1428C43.5325 28.7313 49.3074 22.4089 54.1965 16.1249C54.1969 16.1249 60.3671 7.87317 57.1857 5.38231Z" fill="#96EBFF"/>
<path d="M17.2941 51.4409L21.6809 48.895C21.5701 48.9591 21.4469 49.0002 21.3192 49.0159L22.1482 48.9157C22.3735 48.8884 22.581 48.7818 22.7316 48.6157L24.9916 46.1257C25.0221 46.0921 25.0501 46.0564 25.0752 46.0188C25.3263 45.6428 25.591 44.8275 24.5417 43.5973C24.3797 43.407 22.9241 41.7545 21.7539 42.236C21.6136 42.2936 21.49 42.384 21.3938 42.4993L18.0678 46.474C18.0293 46.5199 17.9956 46.5693 17.9672 46.6217L15.9949 50.2258C15.899 50.4016 15.8645 50.6032 15.8968 50.7999C15.929 50.9966 16.0261 51.1776 16.1733 51.3153C16.3205 51.453 16.5098 51.5398 16.7121 51.5624C16.9145 51.5851 17.1189 51.5424 17.2941 51.4409ZM19.5124 47.6298L22.8384 43.6551C22.742 43.7702 22.6184 43.8606 22.4782 43.9184C22.3044 43.9902 22.1588 43.9732 22.1173 43.9604C22.4773 44.0699 23.3671 44.9186 23.4375 45.2827C23.4319 45.2529 23.4331 45.1397 23.5123 45.0207C23.5374 44.9829 23.5654 44.9474 23.5959 44.9138L21.3358 47.4039C21.4865 47.2378 21.6939 47.1312 21.9192 47.1039L21.0902 47.2039C20.9623 47.2193 20.8391 47.2605 20.7285 47.325L16.3417 49.8709C16.517 49.7692 16.7215 49.7265 16.924 49.7492C17.1264 49.7719 17.3157 49.8588 17.463 49.9965C17.6102 50.1343 17.7073 50.3155 17.7394 50.5123C17.7715 50.7091 17.7368 50.9108 17.6407 51.0865L19.6132 47.4822C19.5846 47.5345 19.5509 47.5839 19.5124 47.6298Z" fill="#6E6E96"/>
<path opacity="0.15" d="M37.0555 21.7071C37.1916 21.6906 37.3242 21.6579 37.4774 21.6198C38.2786 21.4216 39.7696 21.0523 41.6654 23.5938C41.6523 23.576 41.6397 23.5578 41.6277 23.5393C41.9524 24.0458 42.32 24.7005 42.5765 26.0668C42.6715 26.5738 43.1562 26.9173 43.6585 26.8238C44.1605 26.7305 44.4912 26.2344 44.4015 25.7273C44.3118 25.2202 43.8317 24.8712 43.3292 24.9585C42.8264 25.0457 42.4895 25.5374 42.5728 26.046C42.6044 26.2405 42.6933 26.4208 42.828 26.5634C42.9626 26.706 43.1367 26.8043 43.3276 26.8455C43.8638 26.9624 44.251 27.0476 48.1234 22.8233C50.4418 20.2943 53.0703 17.207 55.3348 14.3536C55.3558 14.3274 55.375 14.3001 55.3929 14.2714C56.399 12.679 59.5993 7.30389 58.5311 5.00721C58.4793 4.89585 58.4063 4.79588 58.3163 4.71301C58.2263 4.63015 58.1209 4.56601 58.0063 4.52427C57.8917 4.48253 57.7701 4.464 57.6484 4.46974C57.5267 4.47548 57.4074 4.50539 57.2971 4.55774C57.1868 4.61 57.0878 4.68369 57.0057 4.7746C56.9237 4.86551 56.8601 4.97186 56.8188 5.08757C56.7774 5.20327 56.7591 5.32608 56.7647 5.44896C56.7704 5.57184 56.8 5.69239 56.8518 5.80372C57.2798 6.72389 55.6343 10.404 53.8289 13.2636C53.8468 13.2352 53.8662 13.2078 53.887 13.1815C48.9242 19.4354 44.0073 24.626 43.2309 25.0601C43.3086 25.0166 43.5777 24.9329 43.8828 25.0663C44.0183 25.1256 44.137 25.2183 44.2279 25.3358C44.3188 25.4534 44.3792 25.592 44.4034 25.7392C44.4867 26.2475 44.1463 26.7176 43.643 26.8049C43.1412 26.8917 42.6655 26.5613 42.5744 26.0554C42.4835 25.5474 42.8187 25.0744 43.3216 24.981C43.8222 24.8879 44.3024 25.2137 44.3995 25.7183C44.0958 24.0993 43.6366 23.2247 43.1849 22.5209C43.1729 22.5022 43.1603 22.4841 43.1472 22.4663C40.5149 18.9382 38.7075 19.7935 37.7556 20.0288C37.6841 20.0465 37.6726 20.1922 37.6405 20.1968L37.2952 20.3741C37.9852 21.7079 36.987 20.8696 36.8347 21.0648C36.6825 21.26 36.6906 21.1633 36.7196 21.4101C36.7491 21.6569 36.3716 21.5125 36.3716 21.5125C36.5651 21.6662 36.811 21.7362 37.0555 21.7071Z" fill="#6E6E96"/>
<path opacity="0.15" d="M32.7533 38.5992L43.24 27.1083C43.3229 27.0199 43.3872 26.9162 43.4291 26.8031C43.471 26.69 43.4897 26.5698 43.4842 26.4495C43.4786 26.3293 43.4488 26.2113 43.3965 26.1024C43.3443 25.9936 43.2707 25.8961 43.1799 25.8155C43.0891 25.735 42.983 25.6731 42.8677 25.6333C42.7524 25.5935 42.6303 25.5768 42.5084 25.584C42.3865 25.5911 42.2672 25.6221 42.1576 25.6751C42.0479 25.7281 41.95 25.8021 41.8696 25.8927L31.3827 37.3834C31.2192 37.5625 31.1347 37.7984 31.1475 38.039C31.1604 38.2797 31.2697 38.5054 31.4513 38.6667C31.5413 38.7465 31.6463 38.8082 31.7605 38.848C31.8746 38.8879 31.9956 38.9052 32.1165 38.8989C32.2374 38.8926 32.3559 38.863 32.4651 38.8115C32.5744 38.7601 32.6723 38.6879 32.7533 38.5992Z" fill="#6E6E96"/>
<path opacity="0.15" d="M30.2113 37.2596L24.2409 43.8286C24.0794 44.0105 23.994 44.2507 24.0034 44.4969C24.0127 44.7432 24.1161 44.9757 24.2909 45.1441C24.4657 45.3125 24.698 45.4031 24.9373 45.3963C25.1767 45.3895 25.4038 45.2859 25.5693 45.1079L31.5397 38.5387C31.6237 38.4494 31.6896 38.3437 31.7334 38.2279C31.7773 38.1122 31.7984 37.9885 31.7954 37.8643C31.7924 37.74 31.7654 37.6176 31.7159 37.5042C31.6665 37.3908 31.5956 37.2887 31.5074 37.2037C31.4192 37.1188 31.3155 37.0529 31.2023 37.0096C31.089 36.9664 30.9686 36.9469 30.848 36.9521C30.7273 36.9573 30.6089 36.9871 30.4996 37.0399C30.3903 37.0928 30.2923 37.1674 30.2113 37.2596Z" fill="#6E6E96"/>
<path d="M51.926 9.97621L45.9788 16.6539C45.9001 16.7422 45.8404 16.8445 45.803 16.9549C45.7657 17.0653 45.7514 17.1817 45.7609 17.2974C45.7705 17.4131 45.8038 17.5259 45.8589 17.6293C45.914 17.7327 45.9898 17.8247 46.082 17.9C46.1743 17.9753 46.2811 18.0325 46.3963 18.0683C46.5116 18.1041 46.6332 18.1178 46.754 18.1086C46.8748 18.0994 46.9925 18.0675 47.1005 18.0148C47.2084 17.962 47.3045 17.8894 47.3831 17.8011L53.3303 11.1234C53.4891 10.945 53.5675 10.7136 53.5481 10.4799C53.5288 10.2462 53.4133 10.0294 53.227 9.87732C53.0408 9.7252 52.7991 9.65015 52.5551 9.6687C52.3111 9.68724 52.0848 9.79786 51.926 9.97621Z" fill="#6E6E96"/>
<path opacity="0.6" d="M40.987 20.0603C40.987 20.0603 51.353 7.3412 56.6034 7.3412C56.6034 7.3412 57.7039 5.44318 54.6727 5.44318C51.6415 5.44318 39.9133 19.5937 39.9133 19.5937L40.987 20.0603Z" fill="white"/>
<path d="M29.3826 34.7893L37.8241 24.3099C37.8241 24.3099 40.4869 24.6155 41.8616 25.8375C41.8616 25.8375 41.3002 23.3697 37.1649 22.9837C37.1649 22.9837 31.3903 27.5634 28.3061 34.193L29.3826 34.7893ZM23.3762 42.4732L28.5463 36.4395L27.1581 35.7332L22.7039 42.1188L23.3762 42.4732Z" fill="white"/>
<path d="M58.1034 4.91183C55.5811 2.99513 51.5328 4.67048 46.0706 9.89129C42.2325 13.56 39.081 17.631 38.949 17.8025L36.3313 21.1914C36.2923 21.2422 36.2585 21.2969 36.2305 21.3545C36.1117 21.6014 35.8333 22.1793 36.1988 22.6894C36.2986 22.828 36.4339 22.9372 36.5904 23.0055C36.7469 23.0739 36.919 23.0989 37.0885 23.0779C37.917 22.9792 39.6149 23.2179 41.6586 25.9283C41.6454 25.9106 41.6328 25.8927 41.6206 25.8744C41.9426 26.3722 42.3076 27.0151 42.5617 28.3559C42.6564 28.8543 43.1389 29.1924 43.6381 29.0986C44.1347 29.0052 44.4612 28.5188 44.3719 28.0216C44.2825 27.5246 43.8069 27.1829 43.3093 27.2679C42.811 27.3531 42.4769 27.8342 42.5578 28.3326C42.5888 28.5239 42.6769 28.7015 42.8106 28.8419C42.9442 28.9824 43.1172 29.0792 43.3068 29.1198C43.8388 29.2349 44.2226 29.3184 48.0632 25.1718C50.3628 22.6888 52.9692 19.6583 55.2149 16.8575C55.1011 16.9993 54.9479 17.1042 54.7745 17.159C54.9252 17.1114 55.3257 16.9845 57.0179 14.1884C58.2748 12.1109 59.0426 10.3051 59.3002 8.82064C59.6793 6.62969 58.8586 5.48568 58.1034 4.91183ZM53.7781 15.7074C48.8569 21.8462 43.9805 26.9413 43.2103 27.3676C43.2874 27.3249 43.554 27.243 43.8568 27.3737C43.9916 27.4322 44.1096 27.5235 44.1999 27.6394C44.2902 27.7553 44.3499 27.892 44.3735 28.0369C44.4545 28.5357 44.1163 28.9964 43.6178 29.081C43.1199 29.1654 42.6494 28.8433 42.5601 28.3465C42.4707 27.8499 42.8003 27.3846 43.2964 27.2908C43.7924 27.197 44.2699 27.5133 44.3684 28.0081C44.0687 26.4255 43.6131 25.5668 43.1655 24.8754C43.1533 24.857 43.141 24.8391 43.1275 24.8215C40.5303 21.3758 38.0908 21.1058 36.8681 21.2515C37.0143 21.2342 37.1625 21.2535 37.2993 21.3079C37.4362 21.3622 37.5573 21.4497 37.6518 21.5625C37.8943 21.8497 37.8698 22.1709 37.8401 22.2702C37.8467 22.2476 37.8706 22.1893 37.8892 22.1503C37.8612 22.2086 37.8271 22.2638 37.7876 22.315L40.4056 18.9255C45.1354 12.7946 53.8196 3.96687 56.9889 6.37547C57.2997 6.6115 57.472 6.93419 57.5326 7.39094C57.8517 9.79974 54.8463 14.3237 53.7685 15.7182C53.9302 15.5092 53.8368 15.6714 54.1008 15.6547C54.0209 15.7544 54.2571 15.5464 54.1436 15.6054C53.7781 15.7074 53.9057 15.6992 53.7781 15.7074Z" fill="#6E6E96"/>
<path d="M39.367 5.52518C39.9319 5.52651 40.4744 5.74594 40.8809 6.13749C41.2873 6.52905 41.5261 7.06236 41.5473 7.62571C41.5685 8.18906 41.3705 8.73874 40.9946 9.15962C40.6187 9.58049 40.0943 9.83991 39.531 9.88352L39.367 9.89007H13.1224V55.7214H52.4893V23.2957C52.4868 22.7294 52.7049 22.1843 53.0977 21.7755C53.4905 21.3667 54.0271 21.1263 54.5943 21.1051C55.1614 21.0838 55.7146 21.2834 56.137 21.6616C56.5594 22.0399 56.8179 22.5671 56.8579 23.1321L56.8634 23.2957V55.7214C56.8634 56.8413 56.4321 57.9183 55.6586 58.7297C54.8852 59.5411 53.8288 60.0249 52.708 60.0809L52.4893 60.0863H13.1224C12.0002 60.0863 10.9209 59.6559 10.1077 58.8841C9.29462 58.1123 8.80987 57.0581 8.75376 55.9397L8.74829 55.7214V9.89007C8.74829 8.77021 9.17961 7.69319 9.95305 6.88177C10.7265 6.07036 11.7829 5.58663 12.9037 5.53063L13.1224 5.52518H39.367Z" fill="#6E6E96"/>
</svg>
