<svg width="64" height="64" viewBox="0 0 64 64" fill="none" xmlns="http://www.w3.org/2000/svg">
<path d="M37.1835 35.0023C42.7141 29.1904 45.7727 24.4651 45.7727 24.4651L48.3557 20.9031L43.1323 16.1624L39.8288 19.0234C36.1485 22.8493 33.0304 25.7186 29.8474 29.5098L37.1835 35.0023Z" fill="#F0F0FF"/>
<path d="M37.9782 35.692C40.9271 32.6422 43.1816 29.8927 44.5532 28.1236C45.1413 27.3673 45.7133 26.599 46.2691 25.8193C46.418 25.6098 46.565 25.399 46.7102 25.1868L46.8235 25.0193L46.8531 24.9751C46.8183 25.0273 46.786 25.064 46.7412 25.1077C46.7758 25.0736 46.8076 25.0369 46.8363 24.9979L49.4766 21.4146C49.6116 21.2314 49.6732 21.0056 49.6496 20.7805C49.6259 20.5553 49.5187 20.3467 49.3484 20.1947L44.0098 15.4258C43.8411 15.2751 43.6223 15.1906 43.3946 15.188C43.1669 15.1854 42.9462 15.2651 42.774 15.4119L39.3973 18.2897C39.3784 18.3058 39.3534 18.3297 39.3358 18.3472L35.9592 21.73C33.5894 24.0771 31.3506 26.2943 29.0918 28.9424C29.0102 29.038 28.9492 29.1491 28.9127 29.2688C28.8762 29.3884 28.8649 29.5142 28.8794 29.6383C28.894 29.7625 28.9341 29.8824 28.9973 29.9907C29.0605 30.099 29.1455 30.1935 29.2471 30.2683L36.7454 35.7936C36.9279 35.9283 37.1542 35.9923 37.3814 35.9735C37.6086 35.9548 37.821 35.8546 37.9782 35.692ZM30.5187 30.1241C32.7272 27.5352 34.9392 25.3445 37.2805 23.0254L40.6784 19.6212C40.6608 19.6387 40.6357 19.6626 40.6169 19.6787L43.9934 16.8007C43.8213 16.9475 43.6005 17.0271 43.3728 17.0245C43.1452 17.0219 42.9264 16.9373 42.7577 16.7866L48.0963 21.5556C47.9261 21.4036 47.8189 21.195 47.7952 20.9699C47.7716 20.7448 47.8331 20.519 47.9681 20.3359L45.3282 23.919C45.3183 23.9321 45.3089 23.9457 45.3 23.959C45.2694 24.0057 42.1473 28.7169 36.6283 34.4252C36.7857 34.2626 36.998 34.1625 37.2252 34.1437C37.4524 34.1249 37.6788 34.1887 37.8614 34.3232L30.3632 28.7979C30.4648 28.8727 30.5498 28.9672 30.613 29.0755C30.6762 29.1839 30.7163 29.3038 30.7308 29.4279C30.7454 29.5521 30.7341 29.6779 30.6977 29.7976C30.6612 29.9173 30.6003 30.0284 30.5187 30.1241Z" fill="#6E6E96"/>
<path d="M50.5837 9.34111L43.5773 16.0444C43.224 16.4442 43.9042 17.7869 45.2998 19.0442C46.6953 20.3024 48.1132 20.9966 48.4653 20.5971C48.4686 20.5928 48.4698 20.5876 48.4734 20.5835L48.4754 20.586L54.2004 12.5997" fill="#F0F0FF"/>
<path d="M50.172 8.60748L42.8988 15.3829C42.8795 15.4006 42.8613 15.4194 42.8437 15.4384C42.6773 15.6217 42.4852 15.9451 42.5138 16.4445C42.577 17.5325 43.6882 18.875 44.7069 19.7688C45.4854 20.4519 48.1179 22.5788 49.3087 21.2639C49.3606 21.2057 49.4054 21.1418 49.4423 21.0734C49.3701 21.2057 49.2661 21.3186 49.1393 21.4021C49.0125 21.4856 48.8669 21.5372 48.7152 21.5523C48.5635 21.5674 48.4103 21.5457 48.2691 21.4889C48.1279 21.4321 48.003 21.3421 47.9054 21.2267C47.9964 21.3343 48.1111 21.4201 48.2407 21.4774C48.3704 21.5348 48.5117 21.5623 48.6537 21.5579C48.7957 21.5535 48.9348 21.5172 49.0604 21.4518C49.1859 21.3863 49.2947 21.2935 49.3783 21.1804L55.3216 13.1081C55.3935 13.0105 55.4452 12.8998 55.4737 12.7825C55.5022 12.6652 55.5069 12.5434 55.4877 12.4243C55.4684 12.3051 55.4256 12.1909 55.3615 12.0881C55.2975 11.9852 55.2135 11.8959 55.1144 11.825C55.0153 11.7542 54.903 11.7032 54.7839 11.6752C54.6648 11.6471 54.5413 11.6424 54.4204 11.6613C54.2995 11.6803 54.1835 11.7225 54.0792 11.7857C53.9748 11.8488 53.8841 11.9315 53.8122 12.0292L47.8689 20.1014C47.9522 19.9881 48.0607 19.8951 48.1861 19.8295C48.3115 19.7639 48.4505 19.7274 48.5924 19.7229C48.7343 19.7181 48.8754 19.7454 49.0049 19.8025C49.1345 19.8596 49.2491 19.9452 49.34 20.0526C49.2414 19.9357 49.1151 19.8447 48.9722 19.7877C48.8293 19.7307 48.6743 19.7094 48.521 19.7258C48.3677 19.7421 48.2209 19.7956 48.0937 19.8814C47.9665 19.9673 47.8629 20.0828 47.792 20.2178C47.8173 20.1708 47.8422 20.1326 47.8753 20.0906C47.8887 20.0734 47.9027 20.0568 47.9174 20.0408C48.0659 19.8766 48.2416 19.8458 48.2918 19.8478C48.0386 19.8372 48.1861 19.8295 45.9474 18.3971C44.7927 17.3842 44.3914 16.5345 44.3759 16.3396C44.379 16.3794 44.3599 16.5249 44.2343 16.6632C44.217 16.6825 44.1987 16.701 44.1794 16.7185L51.4531 9.94288C51.6281 9.7744 51.729 9.54489 51.7338 9.30384C51.7387 9.06279 51.6472 8.82951 51.4792 8.6543C51.3111 8.47909 51.0799 8.37599 50.8353 8.36723C50.5908 8.35847 50.3526 8.44475 50.172 8.60748Z" fill="#6E6E96"/>
<path d="M18.0951 50.3299C23.0743 54.2289 35.6049 37.486 35.6049 37.486L38.1706 34.0635C38.1706 34.0635 38.3719 33.6329 38.2513 33.6479C37.6248 33.7247 35.4558 33.84 32.9443 30.4066C32.6195 29.8892 32.1795 29.1253 31.8933 27.5694C31.8867 27.5346 31.899 27.6053 31.8933 27.5694C31.7483 26.9809 25.9734 33.3033 21.0843 39.5873C21.0839 39.5873 14.9137 47.8391 18.0951 50.3299Z" fill="#96EBFF"/>
<path d="M57.9866 4.27138L53.5999 6.81728C53.7107 6.75315 53.8338 6.712 53.9616 6.69638L53.1326 6.79659C52.9072 6.82383 52.6998 6.93049 52.5491 7.09659L50.2892 9.5865C50.2587 9.62017 50.2307 9.65587 50.2056 9.6934C49.9544 10.0695 49.6898 10.8847 50.7391 12.115C50.901 12.3052 52.3567 13.9578 53.5269 13.4762C53.6671 13.4187 53.7908 13.3283 53.8869 13.2129L57.213 9.23822C57.2515 9.19239 57.2852 9.14293 57.3136 9.09055L59.2858 5.48642C59.3817 5.31067 59.4162 5.10906 59.384 4.91235C59.3518 4.71565 59.2547 4.53465 59.1075 4.39697C58.9602 4.25929 58.771 4.17249 58.5686 4.14982C58.3663 4.12714 58.1619 4.16984 57.9866 4.27138ZM55.7684 8.08241L52.4423 12.0571C52.5387 11.9421 52.6624 11.8517 52.8026 11.7938C52.9764 11.722 53.122 11.7391 53.1635 11.7519C52.8034 11.6423 51.9136 10.7936 51.8433 10.4295C51.8489 10.4593 51.8477 10.5725 51.7684 10.6916C51.7433 10.7293 51.7153 10.7648 51.6848 10.7985L53.945 8.30838C53.7943 8.47441 53.5869 8.58106 53.3616 8.60839L54.1906 8.50839C54.3184 8.49298 54.4416 8.45174 54.5523 8.38729L58.9391 5.8414C58.7638 5.94303 58.5593 5.98576 58.3568 5.96307C58.1543 5.94037 57.965 5.8535 57.8178 5.71571C57.6706 5.57792 57.5735 5.39679 57.5414 5.19998C57.5093 5.00317 57.5439 4.8015 57.64 4.62575L55.6676 8.23008C55.6961 8.17776 55.7299 8.1283 55.7684 8.08241Z" fill="#6E6E96"/>
<path opacity="0.15" d="M38.2252 34.0052C38.0892 34.0216 37.9566 34.0543 37.8034 34.0924C37.0022 34.2906 35.5112 34.6599 33.6154 32.1184C33.6285 32.1362 33.6411 32.1544 33.6531 32.173C33.3284 31.6665 32.9608 31.0117 32.7043 29.6454C32.6093 29.1385 32.1245 28.795 31.6223 28.8885C31.1203 28.9817 30.7896 29.4778 30.8792 29.985C30.9689 30.4921 31.4491 30.841 31.9516 30.7538C32.4544 30.6665 32.7913 30.1748 32.708 29.6662C32.6764 29.4718 32.5875 29.2915 32.4528 29.1489C32.3182 29.0063 32.144 28.908 31.9532 28.8668C31.4169 28.7498 31.0297 28.6647 27.1574 32.8889C24.8389 35.4179 22.2104 38.5053 19.946 41.3586C19.925 41.3849 19.9058 41.4121 19.8879 41.4409C18.8817 43.0333 15.6815 48.4084 16.7497 50.705C16.8014 50.8164 16.8744 50.9164 16.9645 50.9992C17.0545 51.0821 17.1598 51.1462 17.2744 51.188C17.389 51.2297 17.5106 51.2483 17.6323 51.2425C17.754 51.2368 17.8734 51.2069 17.9836 51.1545C18.0939 51.1022 18.1929 51.0286 18.275 50.9376C18.3571 50.8467 18.4206 50.7404 18.462 50.6247C18.5033 50.509 18.5217 50.3862 18.516 50.2633C18.5104 50.1404 18.4808 50.0199 18.429 49.9085C18.001 48.9884 19.6464 45.3083 21.4519 42.4487C21.434 42.477 21.4146 42.5045 21.3938 42.5307C26.3566 36.2769 31.2734 31.0862 32.0499 30.6522C31.9722 30.6957 31.7031 30.7794 31.398 30.6459C31.2624 30.5866 31.1438 30.4939 31.0529 30.3764C30.9619 30.2589 30.9016 30.1202 30.8774 29.9731C30.7941 29.4647 31.1345 28.9946 31.6378 28.9074C32.1396 28.8206 32.6152 29.151 32.7064 29.6569C32.7973 30.1648 32.462 30.6378 31.9592 30.7313C31.4586 30.8243 30.9784 30.4985 30.8813 29.9939C31.185 31.6129 31.6441 32.4875 32.0959 33.1914C32.1078 33.21 32.1204 33.2282 32.1336 33.2459C34.7658 36.774 36.5733 35.9187 37.5252 35.6835C37.5967 35.6658 37.6081 35.52 37.6403 35.5154L37.9856 35.3381C37.2956 34.0044 38.2938 34.8427 38.446 34.6475C38.5983 34.4523 38.5901 34.5489 38.5611 34.3022C38.5317 34.0554 38.9092 34.1998 38.9092 34.1998C38.7157 34.046 38.4697 33.9761 38.2252 34.0052Z" fill="#6E6E96"/>
<path opacity="0.15" d="M42.5275 17.1131L32.0408 28.6039C31.9578 28.6923 31.8935 28.7961 31.8516 28.9092C31.8097 29.0223 31.791 29.1424 31.7966 29.2627C31.8022 29.383 31.832 29.501 31.8842 29.6098C31.9365 29.7187 32.0101 29.8162 32.1009 29.8967C32.1917 29.9772 32.2978 30.0392 32.4131 30.0789C32.5284 30.1187 32.6505 30.1355 32.7724 30.1283C32.8943 30.1211 33.0136 30.0901 33.1232 30.0371C33.2329 29.9841 33.3307 29.9101 33.4112 29.8195L43.8981 18.3289C44.0615 18.1497 44.1461 17.9139 44.1332 17.6732C44.1204 17.4326 44.0111 17.2068 43.8294 17.0456C43.7395 16.9657 43.6344 16.9041 43.5203 16.8642C43.4062 16.8244 43.2852 16.8071 43.1643 16.8133C43.0434 16.8196 42.9249 16.8493 42.8156 16.9007C42.7064 16.9521 42.6084 17.0243 42.5275 17.1131Z" fill="#6E6E96"/>
<path opacity="0.15" d="M45.0695 18.4526L51.0399 11.8836C51.2014 11.7017 51.2867 11.4616 51.2774 11.2153C51.268 10.969 51.1647 10.7365 50.9899 10.5681C50.815 10.3998 50.5827 10.3091 50.3434 10.3159C50.1041 10.3227 49.877 10.4263 49.7114 10.6044L43.741 17.1735C43.657 17.2629 43.5912 17.3685 43.5473 17.4843C43.5034 17.6001 43.4824 17.7237 43.4854 17.848C43.4884 17.9723 43.5154 18.0947 43.5649 18.2081C43.6143 18.3215 43.6852 18.4236 43.7734 18.5085C43.8615 18.5934 43.9653 18.6594 44.0785 18.7026C44.1917 18.7458 44.3122 18.7654 44.4328 18.7602C44.5534 18.755 44.6719 18.7251 44.7812 18.6723C44.8905 18.6195 44.9885 18.5448 45.0695 18.4526Z" fill="#6E6E96"/>
<path d="M23.3548 45.736L29.302 39.0583C29.3806 38.97 29.4403 38.8678 29.4777 38.7573C29.5151 38.6469 29.5294 38.5305 29.5198 38.4148C29.5102 38.2991 29.4769 38.1864 29.4218 38.083C29.3667 37.9796 29.2909 37.8876 29.1987 37.8123C29.1065 37.7369 28.9997 37.6798 28.8844 37.644C28.7691 37.6082 28.6476 37.5945 28.5268 37.6036C28.406 37.6128 28.2882 37.6447 28.1803 37.6975C28.0723 37.7502 27.9763 37.8228 27.8976 37.9112L21.9505 44.5888C21.7916 44.7672 21.7133 44.9987 21.7326 45.2324C21.752 45.4661 21.8675 45.6828 22.0537 45.8349C22.2399 45.9871 22.4816 46.0621 22.7256 46.0436C22.9697 46.025 23.196 45.9144 23.3548 45.736Z" fill="#6E6E96"/>
<path opacity="0.6" d="M34.2937 35.6519C34.2937 35.6519 23.9277 48.371 18.6774 48.371C18.6774 48.371 17.5769 50.269 20.6081 50.269C23.6393 50.269 35.3674 36.1185 35.3674 36.1185L34.2937 35.6519Z" fill="white"/>
<path d="M45.8982 20.9229L37.4566 31.4023C37.4566 31.4023 34.7938 31.0968 33.4192 29.8748C33.4192 29.8748 33.9805 32.3426 38.1158 32.7285C38.1158 32.7285 43.8904 28.1489 46.9747 21.5192L45.8982 20.9229ZM51.9046 13.239L46.7345 19.2727L48.1227 19.9791L52.5769 13.5935L51.9046 13.239Z" fill="white"/>
<path d="M17.1773 50.8004C19.6996 52.7171 23.7479 51.0418 29.2101 45.821C33.0482 42.1523 36.1997 38.0812 36.3318 37.9097L38.9494 34.5208C38.9884 34.47 39.0222 34.4154 39.0502 34.3577C39.169 34.1109 39.4475 33.5329 39.0819 33.0229C38.9822 32.8843 38.8469 32.7751 38.6904 32.7067C38.5338 32.6384 38.3618 32.6134 38.1923 32.6344C37.3638 32.7331 35.6658 32.4944 33.6222 29.7839C33.6353 29.8016 33.648 29.8196 33.6602 29.8379C33.3382 29.3401 32.9732 28.6972 32.719 27.3563C32.6244 26.8579 32.1418 26.5199 31.6427 26.6137C31.1461 26.7071 30.8195 27.1935 30.9089 27.6907C30.9982 28.1877 31.4738 28.5294 31.9715 28.4444C32.4698 28.3591 32.8039 27.8781 32.7229 27.3796C32.6919 27.1883 32.6038 27.0108 32.4702 26.8703C32.3366 26.7299 32.1636 26.633 31.974 26.5924C31.4419 26.4774 31.0581 26.3938 27.2176 30.5405C24.9179 33.0235 22.3115 36.0539 20.0659 38.8547C20.1797 38.713 20.3329 38.6081 20.5063 38.5533C20.3556 38.6009 19.955 38.7278 18.2628 41.5239C17.006 43.6014 16.2382 45.4071 15.9806 46.8916C15.6015 49.0826 16.4222 50.2266 17.1773 50.8004ZM21.5027 40.0048C26.4238 33.8661 31.3002 28.7709 32.0705 28.3446C31.9934 28.3873 31.7267 28.4693 31.4239 28.3385C31.2891 28.2801 31.1712 28.1887 31.0809 28.0728C30.9906 27.957 30.9309 27.8203 30.9072 27.6754C30.8263 27.1765 31.1645 26.7159 31.663 26.6313C32.1608 26.5469 32.6313 26.8689 32.7207 27.3657C32.81 27.8623 32.4804 28.3277 31.9844 28.4215C31.4883 28.5153 31.0109 28.1989 30.9123 27.7042C31.2121 29.2867 31.6677 30.1455 32.1152 30.8368C32.1275 30.8552 32.1398 30.8732 32.1533 30.8908C34.7504 34.3365 37.19 34.6065 38.4127 34.4607C38.2665 34.4781 38.1183 34.4587 37.9814 34.4044C37.8446 34.3501 37.7234 34.2626 37.629 34.1497C37.3865 33.8626 37.411 33.5413 37.4406 33.442C37.4341 33.4647 37.4102 33.5229 37.3916 33.562C37.4196 33.5037 37.4536 33.4484 37.4932 33.3973L34.8752 36.7868C30.1454 42.9176 21.4612 51.7454 18.2919 49.3368C17.9811 49.1007 17.8087 48.7781 17.7482 48.3213C17.429 45.9125 20.4345 41.3886 21.5123 39.994C21.3505 40.2031 21.4439 40.0408 21.1799 40.0576C21.2599 39.9578 21.0237 40.1658 21.1371 40.1068C21.5027 40.0048 21.375 40.0131 21.5027 40.0048Z" fill="#6E6E96"/>
<path d="M39.367 5.52518C39.9319 5.52651 40.4744 5.74594 40.8809 6.13749C41.2873 6.52905 41.5261 7.06236 41.5473 7.62571C41.5685 8.18906 41.3705 8.73874 40.9946 9.15962C40.6187 9.58049 40.0943 9.83991 39.531 9.88352L39.367 9.89007H13.1224V55.7214H52.4893V23.2957C52.4868 22.7294 52.7049 22.1843 53.0977 21.7755C53.4905 21.3667 54.0271 21.1263 54.5943 21.1051C55.1614 21.0838 55.7146 21.2834 56.137 21.6616C56.5594 22.0399 56.8179 22.5671 56.8579 23.1321L56.8634 23.2957V55.7214C56.8634 56.8413 56.4321 57.9183 55.6586 58.7297C54.8852 59.5411 53.8288 60.0249 52.708 60.0809L52.4893 60.0863H13.1224C12.0002 60.0863 10.9209 59.6559 10.1077 58.8841C9.29462 58.1123 8.80987 57.0581 8.75376 55.9397L8.74829 55.7214V9.89007C8.74829 8.77021 9.17961 7.69319 9.95305 6.88177C10.7265 6.07036 11.7829 5.58663 12.9037 5.53063L13.1224 5.52518H39.367Z" fill="#6E6E96"/>
</svg>
